<svg width="56" height="56" viewBox="0 0 56 56" fill="none" xmlns="http://www.w3.org/2000/svg">
<path d="M43.7462 16.9077C42.5434 16.539 41.2969 16.232 40.043 15.959C39.7526 14.6052 39.4433 13.3523 39.0904 12.2685C36.6736 4.47113 32.6313 0 28.001 0C23.3687 0 19.3264 4.47113 16.9174 12.2451C16.4407 13.7172 16.0343 15.3613 15.6768 17.2544C15.374 18.8008 15.1415 20.4214 14.9695 22.2013C14.7898 23.9939 14.6999 25.9447 14.6999 28C14.6999 30.0553 14.7898 32.0061 14.9695 33.7919C15.0356 34.4787 15.119 35.122 15.2035 35.7642C14.5358 35.5983 13.921 35.4111 13.3147 35.2318C7.65279 33.448 4.00126 30.6151 4.00126 28C4.00126 26.6798 4.89643 25.5034 5.91763 24.5855L5.6424 25.2204C4.92122 26.8841 6.57189 28.5889 8.25796 27.922C8.75983 27.7234 9.1623 27.3338 9.37684 26.8385L12.0443 20.6795C12.491 19.6481 12.0171 18.45 10.9857 18.0033L4.82683 15.3357C4.33156 15.1213 3.77145 15.1123 3.26958 15.3108C1.58351 15.9778 1.54565 18.3505 3.20975 19.0707L5.37986 20.0098C0.971252 22.8409 0 25.9018 0 28C0 32.6274 4.46429 36.6697 12.246 39.0904C13.3837 39.4411 14.6052 39.7584 15.9581 40.0441C16.2473 41.3887 16.556 42.6389 16.9096 43.7315C19.3264 51.5289 23.3687 56 28.001 56C31.9886 56 35.5444 52.6972 38.01 46.7002C38.43 45.6784 37.9436 44.5091 36.9198 44.089C35.9058 43.669 34.7316 44.1555 34.3096 45.1782C32.5532 49.4491 30.195 51.9987 28.001 51.9987C25.3654 51.9987 22.511 48.2886 20.7233 42.5241C20.5497 41.9873 20.3917 41.399 20.2361 40.7976C20.8707 40.881 21.506 40.9644 22.1827 41.0305C23.9958 41.2092 25.9535 41.3001 28.001 41.3001C30.9746 41.3001 33.8778 41.0979 36.6267 40.6993C37.9352 40.4723 39.2573 40.2616 40.544 39.95C50.2228 37.7472 56 33.28 56 28C56 23.3726 51.5357 19.3303 43.7462 16.9077ZM39.6472 36.0504C38.452 36.3424 37.2616 36.5241 36.0523 36.7391C31.7287 37.3672 26.6978 37.4571 22.5754 37.0487C21.4297 36.9363 20.3796 36.7888 19.3758 36.6253C19.2096 35.6048 19.0623 34.552 18.9513 33.4001C18.7852 31.7404 18.7012 29.9235 18.7012 28C18.7012 26.0765 18.7852 24.2596 18.9513 22.593C19.1115 20.9372 19.3244 19.4436 19.6058 18.0105C19.934 16.2698 20.2993 14.7869 20.7311 13.4525C22.511 7.71141 25.3654 4.00126 28.001 4.00126C30.6366 4.00126 33.489 7.71141 35.2767 13.4788C35.4502 14.0118 35.6088 14.6002 35.7648 15.2033C35.1255 15.1195 34.4854 15.0358 33.7997 14.9695C31.2129 14.7097 28.1827 14.6247 25.2872 14.7615C24.1834 14.8132 23.3315 15.7491 23.3823 16.8529C23.4351 17.9578 24.3279 18.8243 25.4748 18.7588C28.1768 18.6318 30.9961 18.7119 33.4246 18.9513C34.5704 19.0637 35.6206 19.2112 36.6244 19.3747C36.7896 20.3868 36.9366 21.4356 37.0487 22.5901C37.139 23.5395 37.1939 24.5407 37.2334 25.5715L36.1627 24.3951C34.9424 23.0541 32.7097 23.8583 32.625 25.6696C32.5997 26.2087 32.7897 26.7358 33.1531 27.1349L37.672 32.0976C38.4287 32.9285 39.7157 32.9887 40.5467 32.2322L45.5094 27.7133C45.9085 27.3499 46.1468 26.8429 46.1721 26.3038C46.2568 24.4924 44.1092 23.4832 42.7688 24.7043L41.2347 26.1021C41.1996 24.7776 41.1501 23.4577 41.0305 22.2081C40.9643 21.5205 40.8814 20.8819 40.7977 20.2438C41.3943 20.3979 41.9899 20.5543 42.5661 20.7311C48.2964 22.5129 51.9987 25.3664 51.9987 28C51.9987 31.1338 47.0382 34.3682 39.6472 36.0504Z" fill="white"/>
</svg>
